<svg width="1440" height="168" viewBox="0 0 1440 168" fill="none" xmlns="http://www.w3.org/2000/svg">
  <mask id="mask0" mask-type="alpha" maskUnits="userSpaceOnUse" x="0" y="0" width="1440" height="168">
    <rect width="1440" height="168" fill="white"/>
  </mask>
  <g mask="url(#mask0)">
    <rect width="1440" height="168" fill="transparent"/>
    <g opacity="0.3">
      <rect x="809.333" y="-42" width="84.3333" height="84.3333" fill="white" fill-opacity="0.7"/>
      <rect x="1146.67" y="-42" width="84.3333" height="84.3333" fill="white" fill-opacity="0.3"/>
      <rect x="640.667" y="-42" width="84.3333" height="84.3333" fill="white" fill-opacity="0.2"/>
      <rect x="978" y="-42" width="84.3333" height="84.3333" fill="white" fill-opacity="0.5"/>
      <rect x="1315.33" y="-42" width="84.3333" height="84.3333" fill="white" fill-opacity="0.5"/>
      <rect x="893.667" y="-42" width="84.3333" height="84.3333" fill="white" fill-opacity="0.3"/>
      <rect x="1231" y="-42" width="84.3333" height="84.3333" fill="white" fill-opacity="0.7"/>
      <rect x="725" y="-42" width="84.3333" height="84.3333" fill="white" fill-opacity="0.5"/>
      <rect x="1062.33" y="-42" width="84.3333" height="84.3333" fill="white" fill-opacity="0.2"/>
      <rect x="1399.67" y="-42" width="84.3333" height="84.3333" fill="white" fill-opacity="0.3"/>
      <rect x="472" y="126.667" width="84.3333" height="84.3333" fill="white" fill-opacity="0.01"/>
      <rect x="809.333" y="126.667" width="84.3333" height="84.3333" fill="white" fill-opacity="0.3"/>
      <rect x="1146.67" y="126.667" width="84.3333" height="84.3333" fill="white" fill-opacity="0.2"/>
      <rect x="978" y="126.667" width="84.3333" height="84.3333" fill="white" fill-opacity="0.3"/>
      <rect x="1315.33" y="126.667" width="84.3333" height="84.3333" fill="white" fill-opacity="0.3"/>
      <rect x="557" y="127" width="84.3333" height="84.3333" fill="white" fill-opacity="0.3"/>
      <rect x="893.667" y="126.667" width="84.3333" height="84.3333" fill="white" fill-opacity="0.5"/>
      <rect x="1231" y="126.667" width="84.3333" height="84.3333" fill="white" fill-opacity="0.5"/>
      <rect x="725" y="126.667" width="84.3333" height="84.3333" fill="white" fill-opacity="0.7"/>
      <rect x="1062.33" y="126.667" width="84.3333" height="84.3333" fill="white" fill-opacity="0.3"/>
      <rect x="1062.33" y="126.667" width="84.3333" height="84.3333" fill="white" fill-opacity="0.7"/>
      <rect x="1399.67" y="126.667" width="84.3333" height="84.3333" fill="white" fill-opacity="0.5"/>
      <rect x="472" y="42.3333" width="84.3333" height="84.3333" fill="white" fill-opacity="0.3"/>
      <rect x="809.333" y="42.3333" width="84.3333" height="84.3333" fill="white" fill-opacity="0.2"/>
      <rect x="1146.67" y="42.3333" width="84.3333" height="84.3333" fill="white" fill-opacity="0.5"/>
      <rect x="640.667" y="42.3333" width="84.3333" height="84.3333" fill="white" fill-opacity="0.5"/>
      <rect x="978" y="42.3333" width="84.3333" height="84.3333" fill="white" fill-opacity="0.5"/>
      <rect x="1315.33" y="42.3333" width="84.3333" height="84.3333" fill="white" fill-opacity="0.3"/>
      <rect x="1315.33" y="42.3333" width="84.3333" height="84.3333" fill="white" fill-opacity="0.7"/>
      <rect x="893.667" y="42.3333" width="84.3333" height="84.3333" fill="white" fill-opacity="0.3"/>
      <rect x="1231" y="42.3333" width="84.3333" height="84.3333" fill="white" fill-opacity="0.3"/>
      <rect x="725" y="42.3333" width="84.3333" height="84.3333" fill="white" fill-opacity="0.3"/>
      <rect x="1062.33" y="42.3333" width="84.3333" height="84.3333" fill="white" fill-opacity="0.3"/>
      <rect x="1399.67" y="42.3333" width="84.3333" height="84.3333" fill="white" fill-opacity="0.5"/>
    </g>
  </g>
</svg>
